<?xml version="1.0" encoding="utf-8"?>
<!-- Generator: Adobe Illustrator 24.3.0, SVG Export Plug-In . SVG Version: 6.00 Build 0)  -->
<svg version="1.1" id="Layer_1" xmlns="http://www.w3.org/2000/svg" xmlns:xlink="http://www.w3.org/1999/xlink" x="0px" y="0px"
	 viewBox="0 0 20 20" style="enable-background:new 0 0 20 20;" xml:space="preserve">
<style type="text/css">
	.st0{fill:#525252;}
</style>
<g>
	<path class="st0" d="M7.6,19.8c-0.2,0-0.3-0.1-0.4-0.2l-6.7-6.7c-0.2-0.2-0.2-0.6,0-0.8s0.6-0.2,0.8,0l6,6l2.2-8.2
		c0.1-0.2,0.2-0.4,0.4-0.4L18,7.3l-6-6c-0.2-0.2-0.2-0.6,0-0.8s0.6-0.2,0.8,0l6.7,6.7c0.1,0.1,0.2,0.4,0.2,0.6
		c-0.1,0.2-0.2,0.4-0.4,0.4l-8.8,2.4l-2.4,8.8c-0.1,0.2-0.2,0.4-0.4,0.4C7.7,19.7,7.6,19.8,7.6,19.8z"/>
	<path class="st0" d="M16.7,17.3c-0.1,0-0.1,0-0.2,0L0.7,13c-0.3-0.1-0.4-0.3-0.4-0.6s0.2-0.5,0.4-0.6l8.8-2.4l2.4-8.8
		c0.1-0.3,0.3-0.4,0.6-0.4S13,0.4,13,0.7l4.3,15.9c0.1,0.2,0,0.4-0.2,0.6C17,17.2,16.9,17.3,16.7,17.3z M3.1,12.5l12.8,3.4L12.5,3.1
		l-1.9,7c-0.1,0.2-0.2,0.4-0.4,0.4L3.1,12.5z"/>
</g>
</svg>
