<?xml version="1.0" encoding="utf-8"?>
<!-- Generator: Adobe Illustrator 24.3.0, SVG Export Plug-In . SVG Version: 6.00 Build 0)  -->
<svg version="1.1" id="Layer_1" xmlns="http://www.w3.org/2000/svg" xmlns:xlink="http://www.w3.org/1999/xlink" x="0px" y="0px"
	 viewBox="0 0 20 20" style="enable-background:new 0 0 20 20;" xml:space="preserve">
<style type="text/css">
	.st0{fill:#B99F30;}
</style>
<g>
	<path d="M-195.4,5.8h1.1l3.9,7.7h0l3.9-7.7h1.1v8.4h-0.7V6.6h0l-3.9,7.6h-0.8l-3.9-7.6h0v7.6h-0.7V5.8z"/>
	<path d="M-183.3,14.3c-0.4-0.1-0.7-0.3-0.9-0.6c-0.2-0.3-0.3-0.6-0.3-0.9c0-0.5,0.3-0.9,0.8-1.3c0.5-0.3,1.3-0.6,2.5-0.7l2.4-0.2
		c0.1,0,0.2,0,0.3-0.1c0.1-0.1,0.1-0.2,0.1-0.3c0-0.3-0.1-0.6-0.3-0.8c-0.2-0.2-0.5-0.4-0.9-0.5c-0.4-0.1-0.8-0.2-1.3-0.2
		c-0.5,0-0.9,0.1-1.3,0.2c-0.4,0.1-0.8,0.3-1.1,0.6c-0.3,0.2-0.5,0.5-0.6,0.8l-0.5-0.3c0.1-0.3,0.3-0.7,0.7-0.9
		c0.3-0.3,0.8-0.5,1.2-0.7s1-0.3,1.5-0.3c0.6,0,1.1,0.1,1.6,0.3c0.5,0.2,0.8,0.4,1.1,0.8c0.3,0.3,0.4,0.8,0.4,1.2v3
		c0,0.2,0.1,0.3,0.2,0.5s0.2,0.2,0.4,0.2c0.1,0,0.3,0,0.4-0.1c0.1-0.1,0.2-0.2,0.3-0.3l0.4,0.4c-0.1,0.2-0.3,0.3-0.5,0.5
		c-0.2,0.1-0.5,0.2-0.7,0.2c-0.2,0-0.4,0-0.6-0.1c-0.2-0.1-0.3-0.2-0.4-0.4c-0.1-0.2-0.1-0.4-0.1-0.6l0-0.4h0
		c-0.2,0.3-0.4,0.6-0.7,0.8c-0.3,0.2-0.7,0.4-1.2,0.5c-0.4,0.1-0.9,0.2-1.4,0.2C-182.4,14.5-182.9,14.4-183.3,14.3z M-180,13.6
		c0.5-0.2,0.9-0.5,1.2-0.8c0.3-0.4,0.4-0.8,0.4-1.2v-0.4l-2.8,0.3c-0.9,0.1-1.6,0.3-2,0.5c-0.4,0.2-0.6,0.5-0.6,0.9
		c0,0.3,0.2,0.6,0.6,0.8s0.9,0.3,1.6,0.3C-181.1,13.9-180.5,13.8-180,13.6z"/>
	<path d="M-174.6,14.1c-0.6-0.3-1-0.7-1.3-1.2s-0.5-1.1-0.5-1.7s0.2-1.2,0.5-1.7c0.3-0.5,0.8-0.9,1.3-1.2c0.6-0.3,1.2-0.4,1.9-0.4
		c0.7,0,1.4,0.1,1.9,0.4c0.6,0.3,1,0.7,1.2,1.2h0V5.4h0.7v8.8h-0.6l-0.1-1.4h0c-0.3,0.5-0.7,0.9-1.2,1.2c-0.6,0.3-1.2,0.4-1.9,0.4
		C-173.3,14.5-174,14.3-174.6,14.1z M-171,13.5c0.5-0.2,0.8-0.5,1.1-0.9c0.3-0.4,0.4-0.9,0.4-1.4c0-0.5-0.1-1-0.4-1.4
		c-0.3-0.4-0.6-0.7-1.1-0.9s-1-0.3-1.6-0.3c-0.6,0-1.1,0.1-1.6,0.3c-0.5,0.2-0.8,0.5-1.1,0.9c-0.3,0.4-0.4,0.9-0.4,1.4
		c0,0.5,0.1,1,0.4,1.4c0.3,0.4,0.6,0.7,1.1,0.9c0.5,0.2,1,0.3,1.6,0.3C-172,13.9-171.5,13.7-171,13.5z"/>
	<path d="M-167.7,6.8c-0.1-0.1-0.1-0.2-0.1-0.4c0-0.1,0-0.2,0.1-0.3s0.1-0.1,0.2-0.2c0.1,0,0.2-0.1,0.3-0.1c0.2,0,0.3,0.1,0.4,0.1
		c0.1,0.1,0.1,0.2,0.1,0.4c0,0.1,0,0.2-0.1,0.3c0,0.1-0.1,0.1-0.2,0.2c-0.1,0-0.2,0.1-0.3,0.1C-167.5,7-167.6,6.9-167.7,6.8z
		 M-167.7,8.2h0.7v6h-0.7V8.2z"/>
	<path d="M-160.6,8.3c0.4,0.2,0.8,0.5,1,0.9c0.2,0.4,0.3,0.9,0.3,1.4v3.6h-0.7v-3.6c0-0.7-0.2-1.2-0.6-1.5c-0.4-0.4-1-0.6-1.7-0.6
		c-0.6,0-1.1,0.1-1.6,0.3c-0.4,0.2-0.8,0.5-1,0.9c-0.2,0.4-0.4,0.9-0.4,1.4v2.9h-0.7v-6h0.6l0,1.4h0c0.2-0.5,0.6-0.9,1.2-1.2
		c0.5-0.3,1.2-0.4,1.9-0.4C-161.5,8-161,8.1-160.6,8.3z"/>
	<path d="M-157.3,14.3c-0.4-0.1-0.7-0.3-0.9-0.6c-0.2-0.3-0.3-0.6-0.3-0.9c0-0.5,0.3-0.9,0.8-1.3c0.5-0.3,1.3-0.6,2.5-0.7l2.4-0.2
		c0.1,0,0.2,0,0.3-0.1c0.1-0.1,0.1-0.2,0.1-0.3c0-0.3-0.1-0.6-0.3-0.8c-0.2-0.2-0.5-0.4-0.9-0.5c-0.4-0.1-0.8-0.2-1.3-0.2
		c-0.5,0-0.9,0.1-1.3,0.2c-0.4,0.1-0.8,0.3-1.1,0.6c-0.3,0.2-0.5,0.5-0.6,0.8l-0.5-0.3c0.1-0.3,0.3-0.7,0.7-0.9
		c0.3-0.3,0.8-0.5,1.2-0.7s1-0.3,1.5-0.3c0.6,0,1.1,0.1,1.6,0.3c0.5,0.2,0.8,0.4,1.1,0.8c0.3,0.3,0.4,0.8,0.4,1.2v3
		c0,0.2,0.1,0.3,0.2,0.5s0.2,0.2,0.4,0.2c0.1,0,0.3,0,0.4-0.1c0.1-0.1,0.2-0.2,0.3-0.3l0.4,0.4c-0.1,0.2-0.3,0.3-0.5,0.5
		c-0.2,0.1-0.5,0.2-0.7,0.2c-0.2,0-0.4,0-0.6-0.1c-0.2-0.1-0.3-0.2-0.4-0.4c-0.1-0.2-0.1-0.4-0.1-0.6l0-0.4h0
		c-0.2,0.3-0.4,0.6-0.7,0.8c-0.3,0.2-0.7,0.4-1.2,0.5c-0.4,0.1-0.9,0.2-1.4,0.2C-156.4,14.5-156.9,14.4-157.3,14.3z M-154.1,13.6
		c0.5-0.2,0.9-0.5,1.2-0.8c0.3-0.4,0.4-0.8,0.4-1.2v-0.4l-2.8,0.3c-0.9,0.1-1.6,0.3-2,0.5c-0.4,0.2-0.6,0.5-0.6,0.9
		c0,0.3,0.2,0.6,0.6,0.8s0.9,0.3,1.6,0.3C-155.1,13.9-154.6,13.8-154.1,13.6z"/>
	<path d="M-143.8,14.2c-0.6-0.2-1.1-0.6-1.5-1c-0.4-0.4-0.7-0.9-0.8-1.5l0.6-0.3c0.1,0.5,0.3,0.9,0.6,1.3c0.3,0.4,0.8,0.7,1.3,0.9
		c0.5,0.2,1.1,0.3,1.8,0.3c0.6,0,1.1-0.1,1.5-0.2c0.4-0.2,0.8-0.4,1-0.7c0.2-0.3,0.4-0.6,0.4-1c0-0.4-0.2-0.8-0.5-1
		c-0.4-0.3-0.9-0.5-1.7-0.6l-1.9-0.4c-0.8-0.2-1.5-0.4-1.8-0.7c-0.4-0.3-0.6-0.8-0.6-1.3c0-0.5,0.1-0.9,0.4-1.3
		c0.3-0.4,0.6-0.7,1.1-0.9c0.5-0.2,1-0.3,1.7-0.3c0.6,0,1.1,0.1,1.5,0.3c0.5,0.2,0.9,0.4,1.2,0.8s0.6,0.7,0.7,1.2l-0.6,0.3
		c-0.1-0.4-0.3-0.7-0.6-1c-0.3-0.3-0.6-0.5-1-0.6c-0.4-0.2-0.8-0.2-1.3-0.2c-0.5,0-0.9,0.1-1.3,0.2c-0.4,0.1-0.7,0.4-0.9,0.6
		c-0.2,0.3-0.3,0.6-0.3,0.9c0,0.4,0.2,0.7,0.5,0.9c0.3,0.2,0.8,0.4,1.4,0.5l1.9,0.4c1,0.2,1.7,0.4,2.1,0.8c0.5,0.4,0.7,0.9,0.7,1.5
		c0,0.5-0.2,0.9-0.5,1.3c-0.3,0.4-0.7,0.7-1.3,0.9c-0.5,0.2-1.2,0.3-1.9,0.3C-142.5,14.5-143.2,14.4-143.8,14.2z"/>
	<path d="M-135.6,14.2c-0.3-0.2-0.5-0.4-0.7-0.7c-0.2-0.3-0.2-0.7-0.2-1.1V8.8h-1.8V8.2h1.8V6.3l0.7-0.2v2h3.4v0.6h-3.4v3.6
		c0,0.3,0.1,0.6,0.2,0.8c0.1,0.2,0.3,0.4,0.5,0.5c0.2,0.1,0.5,0.2,0.8,0.2c0.4,0,0.7-0.1,1-0.4c0.3-0.2,0.5-0.5,0.6-0.9l0.6,0.3
		c-0.1,0.5-0.4,0.9-0.8,1.2s-0.9,0.5-1.4,0.5C-134.9,14.5-135.3,14.4-135.6,14.2z"/>
	<path d="M-130.3,14.3c-0.4-0.1-0.7-0.3-0.9-0.6c-0.2-0.3-0.3-0.6-0.3-0.9c0-0.5,0.3-0.9,0.8-1.3c0.5-0.3,1.3-0.6,2.5-0.7l2.4-0.2
		c0.1,0,0.2,0,0.3-0.1s0.1-0.2,0.1-0.3c0-0.3-0.1-0.6-0.3-0.8c-0.2-0.2-0.5-0.4-0.9-0.5s-0.8-0.2-1.3-0.2c-0.5,0-0.9,0.1-1.3,0.2
		c-0.4,0.1-0.8,0.3-1,0.6c-0.3,0.2-0.5,0.5-0.6,0.8l-0.5-0.3c0.1-0.3,0.4-0.7,0.7-0.9s0.8-0.5,1.2-0.7c0.5-0.2,1-0.3,1.5-0.3
		c0.6,0,1.1,0.1,1.6,0.3c0.5,0.2,0.8,0.4,1.1,0.8c0.3,0.3,0.4,0.8,0.4,1.2v3c0,0.2,0.1,0.3,0.2,0.5c0.1,0.1,0.2,0.2,0.4,0.2
		c0.1,0,0.3,0,0.4-0.1c0.1-0.1,0.2-0.2,0.3-0.3l0.4,0.4c-0.1,0.2-0.3,0.3-0.5,0.5c-0.2,0.1-0.5,0.2-0.7,0.2c-0.2,0-0.4,0-0.6-0.1
		c-0.2-0.1-0.3-0.2-0.4-0.4c-0.1-0.2-0.1-0.4-0.1-0.6l0-0.4h0c-0.2,0.3-0.4,0.6-0.7,0.8c-0.3,0.2-0.7,0.4-1.2,0.5
		c-0.4,0.1-0.9,0.2-1.4,0.2C-129.4,14.5-129.9,14.4-130.3,14.3z M-127.1,13.6c0.5-0.2,0.9-0.5,1.2-0.8c0.3-0.4,0.4-0.8,0.4-1.2v-0.4
		l-2.8,0.3c-0.9,0.1-1.6,0.3-2,0.5s-0.6,0.5-0.6,0.9c0,0.3,0.2,0.6,0.6,0.8s0.9,0.3,1.6,0.3C-128.1,13.9-127.6,13.8-127.1,13.6z"/>
	<path d="M-118.8,8.2c0.3,0.1,0.5,0.4,0.7,0.7c0.2,0.3,0.3,0.7,0.3,1.1l-0.6,0.2c0-0.5-0.2-0.9-0.5-1.1c-0.3-0.3-0.6-0.4-1.1-0.4
		c-0.4,0-0.8,0.1-1.1,0.3c-0.3,0.2-0.6,0.5-0.7,0.9s-0.3,0.8-0.3,1.3v3.1h-0.7v-6h0.6l0,1.2h0c0.2-0.4,0.5-0.8,0.9-1.1
		c0.4-0.3,0.8-0.4,1.3-0.4C-119.4,8-119.1,8-118.8,8.2z"/>
	<path d="M-116.9,5.4h0.7V11h0l3.8-2.8h1l-3.2,2.3l3.3,3.7h-0.9l-2.9-3.3l-1.2,0.9v2.4h-0.7V5.4z"/>
	<path d="M-109.7,14.2c-0.5-0.2-0.9-0.4-1.2-0.8s-0.5-0.7-0.6-1.1l0.6-0.2c0.1,0.3,0.2,0.6,0.5,0.9c0.3,0.3,0.6,0.5,1,0.6
		c0.4,0.2,0.9,0.2,1.3,0.2c0.4,0,0.8-0.1,1.1-0.2c0.3-0.1,0.6-0.3,0.8-0.5c0.2-0.2,0.3-0.4,0.3-0.6c0-0.3-0.2-0.5-0.4-0.7
		s-0.7-0.3-1.4-0.4l-1.2-0.2c-0.7-0.1-1.2-0.3-1.6-0.6c-0.4-0.2-0.5-0.6-0.5-1c0-0.3,0.1-0.7,0.3-0.9s0.5-0.5,0.9-0.6
		C-109.4,8-109,8-108.5,8c0.4,0,0.8,0.1,1.2,0.2c0.4,0.1,0.7,0.3,1,0.6c0.3,0.2,0.5,0.5,0.6,0.8l-0.6,0.3c-0.1-0.4-0.4-0.7-0.8-0.9
		c-0.4-0.2-0.9-0.4-1.4-0.4c-0.4,0-0.7,0.1-0.9,0.2c-0.3,0.1-0.5,0.2-0.7,0.4c-0.2,0.2-0.2,0.4-0.2,0.6c0,0.3,0.1,0.5,0.4,0.6
		c0.3,0.2,0.7,0.3,1.2,0.4l1.3,0.2c0.8,0.1,1.4,0.3,1.7,0.6c0.4,0.3,0.6,0.6,0.6,1.1c0,0.4-0.1,0.7-0.4,1c-0.2,0.3-0.6,0.5-1,0.7
		c-0.4,0.2-0.9,0.2-1.5,0.2C-108.7,14.5-109.2,14.4-109.7,14.2z"/>
</g>
<g>
	<g>
		<path d="M-201.9,52.9h2.1l3.3,7h0l3.3-7h2.1v8.5h-1.5v-6.7h0l-3.2,6.7h-1.5l-3.2-6.7h0v6.7h-1.5V52.9z"/>
		<path d="M-188.9,61.4c-0.4-0.1-0.7-0.4-1-0.6c-0.2-0.3-0.3-0.6-0.3-0.9c0-0.6,0.3-1,0.8-1.4c0.6-0.4,1.3-0.6,2.4-0.7l2.1-0.2
			c0.2,0,0.3-0.1,0.4-0.1c0.1-0.1,0.1-0.2,0.1-0.3c0-0.2-0.1-0.3-0.3-0.5c-0.2-0.2-0.4-0.3-0.7-0.4s-0.6-0.1-1-0.1
			c-0.4,0-0.8,0.1-1.2,0.2s-0.7,0.3-1,0.5c-0.3,0.2-0.5,0.4-0.6,0.6l-0.9-0.6c0.2-0.3,0.4-0.6,0.8-0.9c0.4-0.3,0.8-0.5,1.3-0.6
			c0.5-0.2,1.1-0.2,1.6-0.2c0.6,0,1.2,0.1,1.7,0.3s0.9,0.4,1.2,0.8s0.4,0.7,0.4,1.2v2.8c0,0.1,0,0.2,0.1,0.3s0.2,0.1,0.3,0.1
			c0.1,0,0.2,0,0.4-0.1s0.2-0.2,0.3-0.3l0.5,0.8c-0.1,0.2-0.3,0.4-0.6,0.5c-0.3,0.1-0.6,0.2-0.9,0.2c-0.3,0-0.5,0-0.7-0.1
			c-0.2-0.1-0.4-0.2-0.5-0.4c-0.1-0.2-0.2-0.4-0.2-0.6l0-0.2h0c-0.2,0.3-0.4,0.5-0.7,0.7c-0.3,0.2-0.6,0.4-1,0.5
			c-0.4,0.1-0.8,0.2-1.3,0.2C-188,61.6-188.5,61.6-188.9,61.4z M-185.7,60.3c0.4-0.2,0.7-0.4,1-0.7c0.2-0.3,0.4-0.6,0.4-0.9v-0.3
			l-2.4,0.2c-0.7,0.1-1.2,0.2-1.5,0.4s-0.5,0.4-0.5,0.6c0,0.3,0.1,0.5,0.5,0.7c0.3,0.2,0.7,0.2,1.2,0.2
			C-186.6,60.6-186.1,60.5-185.7,60.3z"/>
		<path d="M-179.4,61.2c-0.5-0.3-1-0.7-1.3-1.2c-0.3-0.5-0.5-1.1-0.5-1.7c0-0.6,0.1-1.2,0.5-1.7c0.3-0.5,0.7-0.9,1.3-1.2
			s1.2-0.4,1.9-0.4c0.6,0,1.2,0.1,1.7,0.4c0.5,0.2,0.9,0.6,1.1,1h0v-3.9h1.4v8.9h-1.2l-0.2-1.2h0c-0.2,0.4-0.6,0.8-1.1,1
			c-0.5,0.2-1.1,0.4-1.7,0.4C-178.2,61.6-178.8,61.5-179.4,61.2z M-175.8,60.2c0.4-0.2,0.7-0.4,0.9-0.8c0.2-0.3,0.3-0.7,0.3-1.1
			c0-0.4-0.1-0.8-0.3-1.1c-0.2-0.3-0.5-0.6-0.9-0.8c-0.4-0.2-0.8-0.3-1.3-0.3c-0.5,0-1,0.1-1.3,0.3c-0.4,0.2-0.7,0.4-0.9,0.8
			c-0.2,0.3-0.3,0.7-0.3,1.1c0,0.4,0.1,0.8,0.3,1.1c0.2,0.3,0.5,0.6,0.9,0.8c0.4,0.2,0.8,0.3,1.3,0.3
			C-176.7,60.5-176.2,60.4-175.8,60.2z"/>
		<path d="M-172.1,54c-0.2-0.2-0.2-0.4-0.2-0.6c0-0.2,0-0.3,0.1-0.4s0.2-0.2,0.3-0.3c0.1-0.1,0.3-0.1,0.5-0.1c0.3,0,0.5,0.1,0.6,0.2
			c0.2,0.2,0.2,0.4,0.2,0.6c0,0.2,0,0.3-0.1,0.5c-0.1,0.1-0.2,0.2-0.3,0.3c-0.1,0.1-0.3,0.1-0.5,0.1
			C-171.7,54.3-171.9,54.2-172.1,54z M-172.1,55.3h1.4v6.1h-1.4V55.3z"/>
		<path d="M-164,55.4c0.4,0.2,0.7,0.5,1,0.9c0.2,0.4,0.3,0.9,0.3,1.5v3.6h-1.4V58c0-0.6-0.2-1-0.5-1.3c-0.3-0.3-0.8-0.5-1.4-0.5
			c-0.5,0-0.9,0.1-1.2,0.3c-0.4,0.2-0.6,0.4-0.8,0.8c-0.2,0.3-0.3,0.7-0.3,1.1v3.1h-1.3v-6.1h1.2l0.2,1.1h0c0.3-0.4,0.7-0.8,1.1-1
			c0.5-0.2,1-0.4,1.7-0.4C-164.9,55.1-164.4,55.2-164,55.4z"/>
		<path d="M-160.7,61.4c-0.4-0.1-0.7-0.4-1-0.6c-0.2-0.3-0.3-0.6-0.3-0.9c0-0.6,0.3-1,0.8-1.4c0.6-0.4,1.3-0.6,2.4-0.7l2.1-0.2
			c0.2,0,0.3-0.1,0.4-0.1c0.1-0.1,0.1-0.2,0.1-0.3c0-0.2-0.1-0.3-0.3-0.5c-0.2-0.2-0.4-0.3-0.7-0.4s-0.6-0.1-1-0.1
			c-0.4,0-0.8,0.1-1.2,0.2s-0.7,0.3-1,0.5c-0.3,0.2-0.5,0.4-0.6,0.6l-0.9-0.6c0.2-0.3,0.4-0.6,0.8-0.9c0.4-0.3,0.8-0.5,1.3-0.6
			c0.5-0.2,1.1-0.2,1.6-0.2c0.6,0,1.2,0.1,1.7,0.3s0.9,0.4,1.2,0.8s0.4,0.7,0.4,1.2v2.8c0,0.1,0,0.2,0.1,0.3s0.2,0.1,0.3,0.1
			c0.1,0,0.2,0,0.4-0.1s0.2-0.2,0.3-0.3l0.5,0.8c-0.1,0.2-0.3,0.4-0.6,0.5c-0.3,0.1-0.6,0.2-0.9,0.2c-0.3,0-0.5,0-0.7-0.1
			c-0.2-0.1-0.4-0.2-0.5-0.4c-0.1-0.2-0.2-0.4-0.2-0.6l0-0.2h0c-0.2,0.3-0.4,0.5-0.7,0.7c-0.3,0.2-0.6,0.4-1,0.5
			c-0.4,0.1-0.8,0.2-1.3,0.2C-159.8,61.6-160.2,61.6-160.7,61.4z M-157.5,60.3c0.4-0.2,0.7-0.4,1-0.7c0.2-0.3,0.4-0.6,0.4-0.9v-0.3
			l-2.4,0.2c-0.7,0.1-1.2,0.2-1.5,0.4s-0.5,0.4-0.5,0.6c0,0.3,0.1,0.5,0.5,0.7c0.3,0.2,0.7,0.2,1.2,0.2
			C-158.4,60.6-157.9,60.5-157.5,60.3z"/>
		<path d="M-147.2,61.4c-0.6-0.2-1.2-0.5-1.6-1c-0.4-0.4-0.7-0.9-0.9-1.4l1.2-0.6c0.1,0.4,0.3,0.7,0.6,1c0.3,0.3,0.7,0.6,1.2,0.7
			c0.5,0.2,1,0.3,1.5,0.3c0.4,0,0.8-0.1,1.2-0.2s0.6-0.3,0.8-0.5s0.3-0.4,0.3-0.7c0-0.3-0.2-0.6-0.5-0.8c-0.3-0.2-0.8-0.4-1.5-0.5
			l-1.7-0.3c-1-0.2-1.6-0.5-2.1-0.8c-0.4-0.4-0.7-0.8-0.7-1.5c0-0.5,0.1-1,0.4-1.4c0.3-0.4,0.7-0.7,1.3-0.9c0.5-0.2,1.2-0.3,1.9-0.3
			c0.6,0,1.1,0.1,1.6,0.3s0.9,0.4,1.3,0.7s0.6,0.7,0.8,1.1l-1.1,0.6c-0.1-0.3-0.3-0.6-0.5-0.8s-0.5-0.4-0.9-0.5
			c-0.4-0.1-0.7-0.2-1.2-0.2c-0.4,0-0.8,0.1-1.1,0.2c-0.3,0.1-0.6,0.3-0.7,0.5c-0.2,0.2-0.3,0.4-0.3,0.7c0,0.3,0.1,0.6,0.4,0.7
			c0.3,0.2,0.7,0.3,1.2,0.4l1.6,0.3c1.1,0.2,1.9,0.4,2.4,0.8c0.5,0.4,0.8,0.9,0.8,1.6c0,0.6-0.2,1-0.5,1.4c-0.3,0.4-0.8,0.7-1.3,1
			c-0.6,0.2-1.2,0.3-2,0.3C-145.9,61.7-146.6,61.6-147.2,61.4z"/>
		<path d="M-138.3,61.4c-0.4-0.2-0.6-0.4-0.8-0.8c-0.2-0.3-0.3-0.7-0.3-1.2l0-3.1h-1.7v-1h1.7v-1.8l1.3-0.3v2.1h3.3v1h-3.3l0,2.9
			c0,0.3,0,0.5,0.1,0.7c0.1,0.2,0.2,0.3,0.4,0.5c0.2,0.1,0.4,0.2,0.7,0.2c0.4,0,0.7-0.1,1-0.3s0.5-0.5,0.6-0.9l0.8,0.6
			c-0.2,0.5-0.5,0.9-1,1.2s-1,0.5-1.6,0.5C-137.5,61.6-138,61.6-138.3,61.4z"/>
		<path d="M-132.9,61.4c-0.4-0.1-0.7-0.4-1-0.6c-0.2-0.3-0.3-0.6-0.3-0.9c0-0.6,0.3-1,0.8-1.4c0.6-0.4,1.3-0.6,2.4-0.7l2.1-0.2
			c0.2,0,0.3-0.1,0.4-0.1s0.1-0.2,0.1-0.3c0-0.2-0.1-0.3-0.3-0.5c-0.2-0.2-0.4-0.3-0.7-0.4c-0.3-0.1-0.7-0.1-1-0.1
			c-0.4,0-0.8,0.1-1.2,0.2c-0.4,0.1-0.7,0.3-1,0.5c-0.3,0.2-0.5,0.4-0.6,0.6l-0.9-0.6c0.2-0.3,0.4-0.6,0.8-0.9
			c0.4-0.3,0.8-0.5,1.3-0.6c0.5-0.2,1.1-0.2,1.6-0.2c0.6,0,1.2,0.1,1.7,0.3s0.9,0.4,1.2,0.8s0.4,0.7,0.4,1.2v2.8
			c0,0.1,0,0.2,0.1,0.3c0.1,0.1,0.2,0.1,0.3,0.1c0.1,0,0.2,0,0.4-0.1c0.1-0.1,0.2-0.2,0.3-0.3l0.5,0.8c-0.1,0.2-0.3,0.4-0.6,0.5
			s-0.6,0.2-0.9,0.2c-0.3,0-0.5,0-0.7-0.1c-0.2-0.1-0.4-0.2-0.5-0.4c-0.1-0.2-0.2-0.4-0.2-0.6l0-0.2h0c-0.2,0.3-0.4,0.5-0.7,0.7
			s-0.7,0.4-1,0.5c-0.4,0.1-0.8,0.2-1.3,0.2C-132,61.6-132.4,61.6-132.9,61.4z M-129.7,60.3c0.4-0.2,0.7-0.4,1-0.7
			c0.2-0.3,0.4-0.6,0.4-0.9v-0.3l-2.4,0.2c-0.7,0.1-1.2,0.2-1.5,0.4s-0.5,0.4-0.5,0.6c0,0.3,0.2,0.5,0.5,0.7
			c0.3,0.2,0.7,0.2,1.2,0.2C-130.6,60.6-130.1,60.5-129.7,60.3z"/>
		<path d="M-120.4,55.3c0.3,0.2,0.6,0.4,0.7,0.7c0.2,0.3,0.3,0.7,0.4,1.1l-1.2,0.3c0-0.4-0.2-0.8-0.4-1s-0.5-0.3-0.9-0.3
			c-0.4,0-0.7,0.1-1,0.3c-0.3,0.2-0.5,0.5-0.6,0.8s-0.2,0.8-0.2,1.3v2.9h-1.3v-6.1h1.1l0.2,1.1h0c0.2-0.4,0.5-0.7,0.8-1
			c0.4-0.2,0.8-0.4,1.2-0.4C-121,55.1-120.7,55.2-120.4,55.3z"/>
		<path d="M-118.5,52.5h1.3v5.3h0l3.2-2.6h1.9l-3.1,2.4l3.2,3.7h-1.7l-2.5-2.9l-1.1,0.8v2h-1.3V52.5z"/>
		<path d="M-109.7,61.4c-0.5-0.2-1-0.4-1.3-0.7c-0.4-0.3-0.6-0.7-0.7-1l1-0.4c0.1,0.3,0.2,0.5,0.5,0.7s0.6,0.4,1,0.5
			s0.8,0.2,1.2,0.2c0.4,0,0.7,0,1-0.1c0.3-0.1,0.5-0.2,0.7-0.3s0.3-0.3,0.3-0.5c0-0.2-0.1-0.4-0.4-0.5c-0.3-0.1-0.6-0.2-1.2-0.3
			l-1.4-0.2c-0.8-0.1-1.3-0.3-1.7-0.6s-0.6-0.6-0.6-1.1c0-0.4,0.1-0.7,0.4-1s0.6-0.5,1-0.7c0.4-0.2,1-0.2,1.5-0.2
			c0.5,0,0.9,0.1,1.3,0.2s0.8,0.3,1.1,0.5c0.3,0.2,0.5,0.5,0.6,0.8l-1,0.5c-0.1-0.3-0.4-0.5-0.8-0.7c-0.4-0.2-0.8-0.3-1.3-0.3
			c-0.3,0-0.6,0-0.8,0.1c-0.2,0.1-0.4,0.2-0.6,0.3c-0.1,0.1-0.2,0.3-0.2,0.4c0,0.2,0.1,0.4,0.3,0.5c0.2,0.1,0.6,0.2,1,0.3l1.4,0.2
			c0.8,0.1,1.4,0.3,1.8,0.6c0.4,0.3,0.6,0.7,0.6,1.2c0,0.4-0.1,0.8-0.4,1.1c-0.3,0.3-0.6,0.5-1.1,0.7c-0.5,0.2-1,0.2-1.7,0.2
			C-108.6,61.6-109.2,61.6-109.7,61.4z"/>
	</g>
</g>
<g>
	<g>
		<path d="M-201.9,109.6h2.1l3.3,7h0l3.3-7h2.1v8.5h-1.5v-6.7h0l-3.2,6.7h-1.5l-3.2-6.7h0v6.7h-1.5V109.6z"/>
		<path d="M-188.9,118.1c-0.4-0.1-0.7-0.4-1-0.6c-0.2-0.3-0.3-0.6-0.3-0.9c0-0.6,0.3-1,0.8-1.4c0.6-0.4,1.3-0.6,2.4-0.7l2.1-0.2
			c0.2,0,0.3-0.1,0.4-0.1c0.1-0.1,0.1-0.2,0.1-0.3c0-0.2-0.1-0.3-0.3-0.5c-0.2-0.2-0.4-0.3-0.7-0.4s-0.6-0.1-1-0.1
			c-0.4,0-0.8,0.1-1.2,0.2s-0.7,0.3-1,0.5c-0.3,0.2-0.5,0.4-0.6,0.6l-0.9-0.6c0.2-0.3,0.4-0.6,0.8-0.9c0.4-0.3,0.8-0.5,1.3-0.6
			c0.5-0.2,1.1-0.2,1.6-0.2c0.6,0,1.2,0.1,1.7,0.3s0.9,0.4,1.2,0.8s0.4,0.7,0.4,1.2v2.8c0,0.1,0,0.2,0.1,0.3s0.2,0.1,0.3,0.1
			c0.1,0,0.2,0,0.4-0.1s0.2-0.2,0.3-0.3l0.5,0.8c-0.1,0.2-0.3,0.4-0.6,0.5c-0.3,0.1-0.6,0.2-0.9,0.2c-0.3,0-0.5,0-0.7-0.1
			c-0.2-0.1-0.4-0.2-0.5-0.4c-0.1-0.2-0.2-0.4-0.2-0.6l0-0.2h0c-0.2,0.3-0.4,0.5-0.7,0.7c-0.3,0.2-0.6,0.4-1,0.5
			c-0.4,0.1-0.8,0.2-1.3,0.2C-188,118.3-188.5,118.3-188.9,118.1z M-185.7,117c0.4-0.2,0.7-0.4,1-0.7c0.2-0.3,0.4-0.6,0.4-0.9v-0.3
			l-2.4,0.2c-0.7,0.1-1.2,0.2-1.5,0.4s-0.5,0.4-0.5,0.6c0,0.3,0.1,0.5,0.5,0.7c0.3,0.2,0.7,0.2,1.2,0.2
			C-186.6,117.3-186.1,117.2-185.7,117z"/>
		<path d="M-179.4,117.9c-0.5-0.3-1-0.7-1.3-1.2c-0.3-0.5-0.5-1.1-0.5-1.7c0-0.6,0.1-1.2,0.5-1.7c0.3-0.5,0.7-0.9,1.3-1.2
			s1.2-0.4,1.9-0.4c0.6,0,1.2,0.1,1.7,0.4c0.5,0.2,0.9,0.6,1.1,1h0v-3.9h1.4v8.9h-1.2l-0.2-1.2h0c-0.2,0.4-0.6,0.8-1.1,1
			c-0.5,0.2-1.1,0.4-1.7,0.4C-178.2,118.3-178.8,118.2-179.4,117.9z M-175.8,116.9c0.4-0.2,0.7-0.4,0.9-0.8c0.2-0.3,0.3-0.7,0.3-1.1
			c0-0.4-0.1-0.8-0.3-1.1c-0.2-0.3-0.5-0.6-0.9-0.8c-0.4-0.2-0.8-0.3-1.3-0.3c-0.5,0-1,0.1-1.3,0.3c-0.4,0.2-0.7,0.4-0.9,0.8
			c-0.2,0.3-0.3,0.7-0.3,1.1c0,0.4,0.1,0.8,0.3,1.1c0.2,0.3,0.5,0.6,0.9,0.8c0.4,0.2,0.8,0.3,1.3,0.3
			C-176.7,117.2-176.2,117.1-175.8,116.9z"/>
		<path d="M-172.1,110.7c-0.2-0.2-0.2-0.4-0.2-0.6c0-0.2,0-0.3,0.1-0.4s0.2-0.2,0.3-0.3c0.1-0.1,0.3-0.1,0.5-0.1
			c0.3,0,0.5,0.1,0.6,0.2c0.2,0.2,0.2,0.4,0.2,0.6c0,0.2,0,0.3-0.1,0.5c-0.1,0.1-0.2,0.2-0.3,0.3c-0.1,0.1-0.3,0.1-0.5,0.1
			C-171.7,111-171.9,110.9-172.1,110.7z M-172.1,112h1.4v6.1h-1.4V112z"/>
		<path d="M-164,112.1c0.4,0.2,0.7,0.5,1,0.9c0.2,0.4,0.3,0.9,0.3,1.5v3.6h-1.4v-3.4c0-0.6-0.2-1-0.5-1.3c-0.3-0.3-0.8-0.5-1.4-0.5
			c-0.5,0-0.9,0.1-1.2,0.3c-0.4,0.2-0.6,0.4-0.8,0.8c-0.2,0.3-0.3,0.7-0.3,1.1v3.1h-1.3V112h1.2l0.2,1.1h0c0.3-0.4,0.7-0.8,1.1-1
			c0.5-0.2,1-0.4,1.7-0.4C-164.9,111.8-164.4,111.9-164,112.1z"/>
		<path d="M-160.7,118.1c-0.4-0.1-0.7-0.4-1-0.6c-0.2-0.3-0.3-0.6-0.3-0.9c0-0.6,0.3-1,0.8-1.4c0.6-0.4,1.3-0.6,2.4-0.7l2.1-0.2
			c0.2,0,0.3-0.1,0.4-0.1c0.1-0.1,0.1-0.2,0.1-0.3c0-0.2-0.1-0.3-0.3-0.5c-0.2-0.2-0.4-0.3-0.7-0.4s-0.6-0.1-1-0.1
			c-0.4,0-0.8,0.1-1.2,0.2s-0.7,0.3-1,0.5c-0.3,0.2-0.5,0.4-0.6,0.6l-0.9-0.6c0.2-0.3,0.4-0.6,0.8-0.9c0.4-0.3,0.8-0.5,1.3-0.6
			c0.5-0.2,1.1-0.2,1.6-0.2c0.6,0,1.2,0.1,1.7,0.3s0.9,0.4,1.2,0.8s0.4,0.7,0.4,1.2v2.8c0,0.1,0,0.2,0.1,0.3s0.2,0.1,0.3,0.1
			c0.1,0,0.2,0,0.4-0.1s0.2-0.2,0.3-0.3l0.5,0.8c-0.1,0.2-0.3,0.4-0.6,0.5c-0.3,0.1-0.6,0.2-0.9,0.2c-0.3,0-0.5,0-0.7-0.1
			c-0.2-0.1-0.4-0.2-0.5-0.4c-0.1-0.2-0.2-0.4-0.2-0.6l0-0.2h0c-0.2,0.3-0.4,0.5-0.7,0.7c-0.3,0.2-0.6,0.4-1,0.5
			c-0.4,0.1-0.8,0.2-1.3,0.2C-159.8,118.3-160.2,118.3-160.7,118.1z M-157.5,117c0.4-0.2,0.7-0.4,1-0.7c0.2-0.3,0.4-0.6,0.4-0.9
			v-0.3l-2.4,0.2c-0.7,0.1-1.2,0.2-1.5,0.4s-0.5,0.4-0.5,0.6c0,0.3,0.1,0.5,0.5,0.7c0.3,0.2,0.7,0.2,1.2,0.2
			C-158.4,117.3-157.9,117.2-157.5,117z"/>
		<path d="M-147.2,118.1c-0.6-0.2-1.2-0.5-1.6-1c-0.4-0.4-0.7-0.9-0.9-1.4l1.2-0.6c0.1,0.4,0.3,0.7,0.6,1c0.3,0.3,0.7,0.6,1.2,0.7
			c0.5,0.2,1,0.3,1.5,0.3c0.4,0,0.8-0.1,1.2-0.2s0.6-0.3,0.8-0.5s0.3-0.4,0.3-0.7c0-0.3-0.2-0.6-0.5-0.8c-0.3-0.2-0.8-0.4-1.5-0.5
			l-1.7-0.3c-1-0.2-1.6-0.5-2.1-0.8c-0.4-0.4-0.7-0.8-0.7-1.5c0-0.5,0.1-1,0.4-1.4c0.3-0.4,0.7-0.7,1.3-0.9c0.5-0.2,1.2-0.3,1.9-0.3
			c0.6,0,1.1,0.1,1.6,0.3s0.9,0.4,1.3,0.7s0.6,0.7,0.8,1.1l-1.1,0.6c-0.1-0.3-0.3-0.6-0.5-0.8s-0.5-0.4-0.9-0.5
			c-0.4-0.1-0.7-0.2-1.2-0.2c-0.4,0-0.8,0.1-1.1,0.2c-0.3,0.1-0.6,0.3-0.7,0.5c-0.2,0.2-0.3,0.4-0.3,0.7c0,0.3,0.1,0.6,0.4,0.7
			c0.3,0.2,0.7,0.3,1.2,0.4l1.6,0.3c1.1,0.2,1.9,0.4,2.4,0.8c0.5,0.4,0.8,0.9,0.8,1.6c0,0.6-0.2,1-0.5,1.4c-0.3,0.4-0.8,0.7-1.3,1
			c-0.6,0.2-1.2,0.3-2,0.3C-145.9,118.4-146.6,118.3-147.2,118.1z"/>
		<path d="M-138.3,118.1c-0.4-0.2-0.6-0.4-0.8-0.8c-0.2-0.3-0.3-0.7-0.3-1.2l0-3.1h-1.7v-1h1.7v-1.8l1.3-0.3v2.1h3.3v1h-3.3l0,2.9
			c0,0.3,0,0.5,0.1,0.7c0.1,0.2,0.2,0.3,0.4,0.5c0.2,0.1,0.4,0.2,0.7,0.2c0.4,0,0.7-0.1,1-0.3s0.5-0.5,0.6-0.9l0.8,0.6
			c-0.2,0.5-0.5,0.9-1,1.2s-1,0.5-1.6,0.5C-137.5,118.3-138,118.3-138.3,118.1z"/>
		<path d="M-132.9,118.1c-0.4-0.1-0.7-0.4-1-0.6c-0.2-0.3-0.3-0.6-0.3-0.9c0-0.6,0.3-1,0.8-1.4c0.6-0.4,1.3-0.6,2.4-0.7l2.1-0.2
			c0.2,0,0.3-0.1,0.4-0.1s0.1-0.2,0.1-0.3c0-0.2-0.1-0.3-0.3-0.5c-0.2-0.2-0.4-0.3-0.7-0.4c-0.3-0.1-0.7-0.1-1-0.1
			c-0.4,0-0.8,0.1-1.2,0.2c-0.4,0.1-0.7,0.3-1,0.5c-0.3,0.2-0.5,0.4-0.6,0.6l-0.9-0.6c0.2-0.3,0.4-0.6,0.8-0.9
			c0.4-0.3,0.8-0.5,1.3-0.6c0.5-0.2,1.1-0.2,1.6-0.2c0.6,0,1.2,0.1,1.7,0.3s0.9,0.4,1.2,0.8s0.4,0.7,0.4,1.2v2.8
			c0,0.1,0,0.2,0.1,0.3c0.1,0.1,0.2,0.1,0.3,0.1c0.1,0,0.2,0,0.4-0.1c0.1-0.1,0.2-0.2,0.3-0.3l0.5,0.8c-0.1,0.2-0.3,0.4-0.6,0.5
			s-0.6,0.2-0.9,0.2c-0.3,0-0.5,0-0.7-0.1c-0.2-0.1-0.4-0.2-0.5-0.4c-0.1-0.2-0.2-0.4-0.2-0.6l0-0.2h0c-0.2,0.3-0.4,0.5-0.7,0.7
			s-0.7,0.4-1,0.5c-0.4,0.1-0.8,0.2-1.3,0.2C-132,118.3-132.4,118.3-132.9,118.1z M-129.7,117c0.4-0.2,0.7-0.4,1-0.7
			c0.2-0.3,0.4-0.6,0.4-0.9v-0.3l-2.4,0.2c-0.7,0.1-1.2,0.2-1.5,0.4s-0.5,0.4-0.5,0.6c0,0.3,0.2,0.5,0.5,0.7
			c0.3,0.2,0.7,0.2,1.2,0.2C-130.6,117.3-130.1,117.2-129.7,117z"/>
		<path d="M-120.4,112c0.3,0.2,0.6,0.4,0.7,0.7c0.2,0.3,0.3,0.7,0.4,1.1l-1.2,0.3c0-0.4-0.2-0.8-0.4-1s-0.5-0.3-0.9-0.3
			c-0.4,0-0.7,0.1-1,0.3c-0.3,0.2-0.5,0.5-0.6,0.8s-0.2,0.8-0.2,1.3v2.9h-1.3V112h1.1l0.2,1.1h0c0.2-0.4,0.5-0.7,0.8-1
			c0.4-0.2,0.8-0.4,1.2-0.4C-121,111.8-120.7,111.9-120.4,112z"/>
		<path d="M-118.5,109.2h1.3v5.3h0l3.2-2.6h1.9l-3.1,2.4l3.2,3.7h-1.7l-2.5-2.9l-1.1,0.8v2h-1.3V109.2z"/>
		<path d="M-109.7,118.1c-0.5-0.2-1-0.4-1.3-0.7c-0.4-0.3-0.6-0.7-0.7-1l1-0.4c0.1,0.3,0.2,0.5,0.5,0.7s0.6,0.4,1,0.5
			s0.8,0.2,1.2,0.2c0.4,0,0.7,0,1-0.1c0.3-0.1,0.5-0.2,0.7-0.3s0.3-0.3,0.3-0.5c0-0.2-0.1-0.4-0.4-0.5c-0.3-0.1-0.6-0.2-1.2-0.3
			l-1.4-0.2c-0.8-0.1-1.3-0.3-1.7-0.6s-0.6-0.6-0.6-1.1c0-0.4,0.1-0.7,0.4-1s0.6-0.5,1-0.7c0.4-0.2,1-0.2,1.5-0.2
			c0.5,0,0.9,0.1,1.3,0.2s0.8,0.3,1.1,0.5c0.3,0.2,0.5,0.5,0.6,0.8l-1,0.5c-0.1-0.3-0.4-0.5-0.8-0.7c-0.4-0.2-0.8-0.3-1.3-0.3
			c-0.3,0-0.6,0-0.8,0.1c-0.2,0.1-0.4,0.2-0.6,0.3c-0.1,0.1-0.2,0.3-0.2,0.4c0,0.2,0.1,0.4,0.3,0.5c0.2,0.1,0.6,0.2,1,0.3l1.4,0.2
			c0.8,0.1,1.4,0.3,1.8,0.6c0.4,0.3,0.6,0.7,0.6,1.2c0,0.4-0.1,0.8-0.4,1.1c-0.3,0.3-0.6,0.5-1.1,0.7c-0.5,0.2-1,0.2-1.7,0.2
			C-108.6,118.3-109.2,118.2-109.7,118.1z"/>
	</g>
</g>
<g>
	<path class="st0" d="M7.6,19.8c-0.2,0-0.3-0.1-0.4-0.2l-6.7-6.7c-0.2-0.2-0.2-0.6,0-0.8c0.2-0.2,0.6-0.2,0.8,0l6,6l2.2-8.2
		c0.1-0.2,0.2-0.4,0.4-0.4L18,7.3l-6-6c-0.2-0.2-0.2-0.6,0-0.8c0.2-0.2,0.6-0.2,0.8,0l6.7,6.7c0.1,0.1,0.2,0.4,0.2,0.6
		c-0.1,0.2-0.2,0.4-0.4,0.4l-8.8,2.4l-2.4,8.8c-0.1,0.2-0.2,0.4-0.4,0.4C7.7,19.7,7.6,19.8,7.6,19.8z"/>
	<path class="st0" d="M16.7,17.3c-0.1,0-0.1,0-0.2,0L0.7,13c-0.3-0.1-0.4-0.3-0.4-0.6c0-0.3,0.2-0.5,0.4-0.6l8.8-2.4l2.4-8.8
		c0.1-0.3,0.3-0.4,0.6-0.4S13,0.4,13,0.7l4.3,15.9c0.1,0.2,0,0.4-0.2,0.6C17,17.2,16.9,17.3,16.7,17.3z M3.1,12.5l12.8,3.4L12.5,3.1
		l-1.9,7c-0.1,0.2-0.2,0.4-0.4,0.4L3.1,12.5z"/>
</g>
</svg>
