<?xml version="1.0" encoding="utf-8"?>
<!-- Generator: Adobe Illustrator 24.3.0, SVG Export Plug-In . SVG Version: 6.00 Build 0)  -->
<svg version="1.1" id="Layer_1" xmlns="http://www.w3.org/2000/svg" xmlns:xlink="http://www.w3.org/1999/xlink" x="0px" y="0px"
	 viewBox="0 0 40 40" style="enable-background:new 0 0 40 40;" xml:space="preserve">
<style type="text/css">
	.st0{fill:#B99F30;}
</style>
<path class="st0" d="M8.3,39c-4,0-7.3-3.3-7.3-7.3V8.3C1,4.3,4.3,1,8.3,1h23.3c4,0,7.3,3.3,7.3,7.3v23.3c0,4-3.3,7.3-7.3,7.3H8.3z
	 M28.9,25.9c0.6,0,1.1-0.4,1.3-1c0.2-0.6,0-1.2-0.4-1.6L21,14.6c-0.6-0.6-1.5-0.6-2.1,0l-8.8,8.8c-0.4,0.4-0.5,1-0.4,1.5
	c0.2,0.5,0.7,0.9,1.2,1c0.4,0,0.9-0.1,1.2-0.4l7.7-7.7l7.7,7.7C28,25.7,28.5,25.9,28.9,25.9L28.9,25.9z"/>
</svg>
